<?xml version="1.0" standalone="no"?>
<svg xmlns:xlink="http://www.w3.org/1999/xlink" id="wave" style="transform:rotate(0deg); transition: 0.3s" viewBox="0 0 1440 490" version="1.1" xmlns="http://www.w3.org/2000/svg"><defs><linearGradient id="sw-gradient-0" x1="0" x2="0" y1="1" y2="0"><stop stop-color="rgba(58.888, 53.003, 51.112, 1)" offset="0%"/><stop stop-color="rgba(138.576, 119.472, 77.243, 1)" offset="100%"/></linearGradient></defs><path style="transform:translate(0, 0px); opacity:1" fill="url(#sw-gradient-0)" d="M0,49L120,65.3C240,82,480,114,720,114.3C960,114,1200,82,1440,122.5C1680,163,1920,278,2160,326.7C2400,376,2640,359,2880,302.2C3120,245,3360,147,3600,122.5C3840,98,4080,147,4320,179.7C4560,212,4800,229,5040,253.2C5280,278,5520,310,5760,285.8C6000,261,6240,180,6480,196C6720,212,6960,327,7200,359.3C7440,392,7680,343,7920,343C8160,343,8400,392,8640,392C8880,392,9120,343,9360,269.5C9600,196,9840,98,10080,73.5C10320,49,10560,98,10800,122.5C11040,147,11280,147,11520,179.7C11760,212,12000,278,12240,294C12480,310,12720,278,12960,220.5C13200,163,13440,82,13680,114.3C13920,147,14160,294,14400,310.3C14640,327,14880,212,15120,212.3C15360,212,15600,327,15840,343C16080,359,16320,278,16560,236.8C16800,196,17040,196,17160,196L17280,196L17280,490L17160,490C17040,490,16800,490,16560,490C16320,490,16080,490,15840,490C15600,490,15360,490,15120,490C14880,490,14640,490,14400,490C14160,490,13920,490,13680,490C13440,490,13200,490,12960,490C12720,490,12480,490,12240,490C12000,490,11760,490,11520,490C11280,490,11040,490,10800,490C10560,490,10320,490,10080,490C9840,490,9600,490,9360,490C9120,490,8880,490,8640,490C8400,490,8160,490,7920,490C7680,490,7440,490,7200,490C6960,490,6720,490,6480,490C6240,490,6000,490,5760,490C5520,490,5280,490,5040,490C4800,490,4560,490,4320,490C4080,490,3840,490,3600,490C3360,490,3120,490,2880,490C2640,490,2400,490,2160,490C1920,490,1680,490,1440,490C1200,490,960,490,720,490C480,490,240,490,120,490L0,490Z"/></svg>